#!OML:ASF F:\VICON\USERDATA\INSTALL\rory3\rory3.ASF
:FULLY-SPECIFIED
:DEGREES
296
root -0.191374 17.2193 -20.5576 -103.064 -49.3184 125.522
lowerback -11.794 -1.13962 -3.01743
upperback -10.0223 -2.69223 -9.04852
thorax -4.40009 -2.10585 -8.13758
lowerneck -0.315178 24.7512 9.3767
upperneck 0.726372 35.281 -31.2337
head 7.88548 16.4391 -6.81707
rclavicle -3.13086e-014 4.45278e-014
rhumerus -13.3531 -30.5147 -26.7431
rradius 22.8155
rwrist 20.7235
rhand -31.5276 38.7619
rfingers 7.12502
rthumb -4.79262 8.83615
lclavicle -3.13086e-014 4.45278e-014
lhumerus -26.6037 31.0155 38.3211
lradius 19.3151
lwrist -47.5535
lhand -25.0564 13.567
lfingers 7.12502
lthumb 1.45711 43.5418
rfemur 4.48707 -173.23 -35.3815
rtibia 37.6873
rfoot -162.569 -100.816
rtoes 30.294
lfemur -20.179 -1.87383 -15.6735
ltibia 20.9006
lfoot 2.79103 28.2454
ltoes 29.7945
297
root -0.163562 17.1334 -20.428 -103.448 -49.8304 125.601
lowerback -10.5369 -0.913302 -3.33089
upperback -9.86847 -2.3708 -8.81594
thorax -4.84592 -1.86967 -7.62372
lowerneck 0.695712 25.2724 11.4203
upperneck 1.36695 36.5622 -32.2398
head 8.82798 17.0417 -6.9844
rclavicle 1.83876e-014 2.06736e-014
rhumerus -17.0488 -29.2386 -27.8816
rradius 23.6789
rwrist 18.1514
rhand -30.1792 37.3228
rfingers 7.12502
rthumb -3.49053 7.37167
lclavicle 1.83876e-014 2.06736e-014
lhumerus -27.1151 31.6232 41.0418
lradius 19.3815
lwrist -48.3938
lhand -24.382 12.9117
lfingers 7.12502
lthumb 2.1084 42.8811
rfemur -45.9153 5.50181 -34.7001
rtibia 38.2557
rfoot -81.7386 -54.2543
rtoes 32.3377
lfemur -21.6592 -0.754258 -17.33
ltibia 21.9439
lfoot 6.56148 22.988
ltoes 18.4353
298
root -0.157314 17.0704 -20.3035 -103.535 -51.5127 125.539
lowerback -9.66913 -0.525461 -2.43336
upperback -9.76179 -1.85282 -8.50184
thorax -5.14506 -1.59906 -7.73801
lowerneck 0.845166 25.5543 11.1477
upperneck 2.45505 37.1264 -31.1456
head 8.95695 17.275 -6.52509
rclavicle 2.00773e-014 -2.06736e-014
rhumerus -20.9006 -27.7957 -28.4605
rradius 23.3943
rwrist 16.6357
rhand -30.2076 37.6833
rfingers 7.12502
rthumb -3.51797 7.73263
lclavicle 2.00773e-014 -2.06736e-014
lhumerus -27.1029 32.6554 43.3659
lradius 18.9678
lwrist -47.7722
lhand -23.4321 8.55469
lfingers 7.12502
lthumb 3.02578 38.513
rfemur -45.8442 6.31772 -33.9053
rtibia 38.8193
rfoot -82.7267 -55.5093
rtoes 31.0608
lfemur -23.3172 0.59336 -17.9067
ltibia 22.9975
lfoot 7.97733 17.8976
ltoes 10.2275
299
root -0.151654 17.0117 -20.1516 -102.682 -53.4022 125.106
lowerback -9.37503 -0.155526 -1.07403
upperback -9.85607 -1.39022 -8.31657
thorax -5.37076 -1.42026 -8.29633
lowerneck 1.39174 25.6137 11.623
upperneck 3.227 37.3945 -30.5471
head 9.12514 17.4317 -6.38199
rclavicle -1.0138e-014 -1.90833e-014
rhumerus -23.8647 -24.1584 -29.901
rradius 23.0573
rwrist 12.1076
rhand -28.8443 35.8777
rfingers 7.12502
rthumb -2.20137 5.90929
lclavicle -1.0138e-014 -1.90833e-014
lhumerus -26.0111 25.3778 49.6564
lradius 19.7265
lwrist -43.0874
lhand -21.0316 11.5144
lfingers 7.12502
lthumb 5.3438 41.427
rfemur -45.7782 4.47428 -31.9131
rtibia 39.3813
rfoot -80.3006 -54.8869
rtoes 32.1101
lfemur -25.7698 1.76242 -18.6132
ltibia 23.9728
lfoot 9.51303 12.1983
ltoes -6.00262
300
root -0.151761 16.9349 -20.0295 -102.4 -54.4886 124.719
lowerback -8.77239 0.131462 -1.01569
upperback -9.75416 -0.965214 -8.12646
thorax -5.52294 -1.16973 -8.08989
lowerneck 1.6954 25.7457 12.0599
upperneck 4.05871 37.7971 -30.0386
head 9.40039 17.6107 -6.18607
rclavicle 2.62396e-014 -4.45278e-014
rhumerus -27.5708 -20.7606 -32.1438
rradius 23.74
rwrist 7.86956
rhand -27.8231 34.9172
rfingers 7.12502
rthumb -1.21506 4.94093
lclavicle 2.62396e-014 -4.45278e-014
lhumerus -26.0575 23.7326 53.0134
lradius 20.1853
lwrist -42.133
lhand -18.7576 11.1968
lfingers 7.12502
lthumb 7.53913 41.0424
rfemur -45.5327 3.28642 -30.8158
rtibia 39.9668
rfoot -77.3053 -55.0964
rtoes 31.72
lfemur -27.3924 2.71086 -19.8986
ltibia 25.1018
lfoot 8.08074 9.30299
ltoes -14.0613
301
root -0.149726 16.8439 -19.8865 -101.273 -55.3335 123.909
lowerback -8.53539 0.586954 -1.08651
upperback -9.84802 -0.356063 -8.22907
thorax -5.67468 -0.857501 -8.13934
lowerneck 1.71048 25.665 12.2672
upperneck 5.1864 37.8462 -29.0238
head 9.57855 17.6003 -5.90188
rclavicle -1.93815e-015 1.27222e-014
rhumerus -32.0429 -19.1492 -34.0714
rradius 24.7802
rwrist 5.50438
rhand -26.1439 33.3044
rfingers 7.12502
rthumb 0.406799 3.32502
lclavicle -1.93815e-015 1.27222e-014
lhumerus -27.4805 34.3119 51.651
lradius 18.7551
lwrist -54.4246
lhand -17.6428 9.67405
lfingers 7.12502
lthumb 8.61501 39.4783
rfemur -45.5371 0.841373 -29.9297
rtibia 40.5439
rfoot -72.8606 -55.4219
rtoes 31.3206
lfemur -29.5053 2.74904 -21.2704
ltibia 26.4274
lfoot 4.79861 8.28142
ltoes -8.05163
302
root -0.143192 16.7694 -19.7441 -100.53 -57.2182 123.35
lowerback -7.97958 1.16657 0.0139631
upperback -9.94638 0.400241 -8.21879
thorax -5.98112 -0.53203 -8.75186
lowerneck 1.95414 25.4166 12.8813
upperneck 6.0597 37.6362 -28.225
head 9.71579 17.5217 -5.80203
rclavicle -1.60022e-014 6.52014e-014
rhumerus -36.9124 -19.4238 -35.4886
rradius 25.6614
rwrist 5.01569
rhand -24.1019 32.3656
rfingers 7.12502
rthumb 2.37892 2.39911
lclavicle -1.60022e-014 6.52014e-014
lhumerus -26.6464 33.1156 54.726
lradius 17.9955
lwrist -54.4955
lhand -16.2096 10.7083
lfingers 7.12502
lthumb 9.99791 40.4508
rfemur -45.4717 -0.126868 -28.3706
rtibia 41.1373
rfoot -70.3964 -56.1869
rtoes 29.6119
lfemur -31.5124 3.1707 -21.6526
ltibia 27.8135
lfoot 2.63231 6.58261
ltoes -7.8983
303
root -0.137068 16.6967 -19.5936 -99.7897 -59.5482 122.841
lowerback -7.58007 1.67504 1.23778
upperback -9.98737 1.13545 -7.6911
thorax -6.11299 -0.183845 -8.86537
lowerneck 2.27342 25.2578 13.1748
upperneck 6.85692 37.5968 -27.8224
head 9.89199 17.5029 -5.75651
rclavicle -7.15625e-015 7.4743e-014
rhumerus -40.6833 -18.942 -37.3155
rradius 26.3771
rwrist 2.8464
rhand -22.9517 31.8111
rfingers 7.12502
rthumb 3.48972 1.85989
lclavicle -7.15625e-015 7.4743e-014
lhumerus -26.7218 33.7938 57.5648
lradius 18.0149
lwrist -55.8879
lhand -14.1758 11.4082
lfingers 7.12502
lthumb 11.9596 41.0465
rfemur -45.3825 -0.517403 -26.5265
rtibia 41.6565
rfoot -68.876 -56.8441
rtoes 27.9286
lfemur -33.8173 3.86628 -21.7996
ltibia 29.5149
lfoot 1.09704 5.14682
ltoes -12.3409
304
root -0.131507 16.6166 -19.4239 -98.3503 -61.573 121.831
lowerback -7.43182 2.20209 2.38828
upperback -10.1463 1.85814 -7.43726
thorax -6.22633 0.126363 -9.2456
lowerneck 2.38287 25.0666 13.6777
upperneck 7.9179 37.5271 -27.143
head 10.1625 17.4503 -5.62144
rclavicle 1.88597e-014 -1.74931e-014
rhumerus -44.2152 -19.1813 -39.0098
rradius 26.8181
rwrist 1.86994
rhand -21.1203 30.8909
rfingers 7.12502
rthumb 5.25822 0.976185
lclavicle 1.88597e-014 -1.74931e-014
lhumerus -27.1456 36.199 59.1354
lradius 17.6751
lwrist -59.2921
lhand -10.8941 10.4631
lfingers 7.12502
lthumb 15.1226 39.8906
rfemur -45.2776 -1.53127 -25.0577
rtibia 42.0823
rfoot -66.998 -56.9295
rtoes 26.5925
lfemur -36.4629 3.99758 -22.2263
ltibia 31.6348
lfoot -0.485462 4.52756
ltoes -8.60063
305
root -0.135494 16.5515 -19.2537 -98.0854 -63.7497 121.197
lowerback -6.56088 2.78922 3.88796
upperback -10.0308 2.71727 -7.16212
thorax -6.39338 0.504133 -9.82475
lowerneck 2.09505 24.7912 14.0896
upperneck 8.88632 37.2591 -26.3563
head 10.3821 17.2887 -5.45245
rclavicle 3.74523e-014 -2.38542e-014
rhumerus -47.1848 -19.3046 -41.1569
rradius 27.2069
rwrist 0.149289
rhand -19.7086 30.3088
rfingers 7.12502
rthumb 6.6211 0.432278
lclavicle 3.74523e-014 -2.38542e-014
lhumerus -24.7692 23.9726 66.3089
lradius 18.1947
lwrist -47.4229
lhand -5.60494 10.9995
lfingers 7.12502
lthumb 20.2121 39.9679
rfemur -44.5634 -2.20144 -23.1565
rtibia 42.5029
rfoot -64.1887 -56.8542
rtoes 25.5463
lfemur -37.9702 4.24535 -22.2222
ltibia 33.9251
lfoot -1.98016 3.5532
ltoes -5.90753
306
root -0.138876 16.4804 -19.0642 -96.9457 -65.9234 120.199
lowerback -6.42342 3.31531 5.27379
upperback -9.92008 3.49528 -6.69689
thorax -6.15412 0.868409 -10.0934
lowerneck 1.27544 24.5315 13.2038
upperneck 9.62874 36.8036 -25.3078
head 10.2574 16.9959 -5.12179
rclavicle 5.87191e-014 -6.52014e-014
rhumerus -49.2897 -19.8624 -43.0119
rradius 27.3126
rwrist -0.602778
rhand -18.7336 29.8977
rfingers 7.12502
rthumb 7.56233 0.0529364
lclavicle 5.87191e-014 -6.52014e-014
lhumerus -25.5028 30.2465 66.6543
lradius 17.5701
lwrist -54.3887
lhand -0.42128 8.36045
lfingers 7.12502
lthumb 25.1868 36.7186
rfemur -44.2559 -2.55792 -21.7647
rtibia 42.9791
rfoot -62.5342 -57.1368
rtoes 23.4843
lfemur -40.249 4.07204 -22.3805
ltibia 36.449
lfoot -3.21639 2.98338
ltoes -19.6055
